<mxfile host="app.diagrams.net" modified="2023-06-02T20:58:02.250Z" agent="Mozilla/5.0 (Macintosh; Intel Mac OS X 10_15_7) AppleWebKit/537.36 (KHTML, like Gecko) Chrome/113.0.0.0 Safari/537.36" etag="pQglqkjLZTjXFpYySeOS" version="21.3.7" type="github">
  <diagram id="C5RBs43oDa-KdzZeNtuy" name="Page-1">
    <mxGraphModel dx="1774" dy="1096" grid="1" gridSize="10" guides="1" tooltips="1" connect="1" arrows="1" fold="1" page="1" pageScale="1" pageWidth="827" pageHeight="1169" math="0" shadow="0">
      <root>
        <mxCell id="WIyWlLk6GJQsqaUBKTNV-0" />
        <mxCell id="WIyWlLk6GJQsqaUBKTNV-1" parent="WIyWlLk6GJQsqaUBKTNV-0" />
        <mxCell id="8Vt_5J74K0emihzSlpB0-21" value="" style="rounded=0;whiteSpace=wrap;html=1;" vertex="1" parent="WIyWlLk6GJQsqaUBKTNV-1">
          <mxGeometry x="360" y="180" width="170" height="100" as="geometry" />
        </mxCell>
        <mxCell id="8Vt_5J74K0emihzSlpB0-13" style="edgeStyle=orthogonalEdgeStyle;rounded=0;orthogonalLoop=1;jettySize=auto;html=1;exitX=0.9;exitY=0.5;exitDx=0;exitDy=0;exitPerimeter=0;entryX=0;entryY=0.5;entryDx=0;entryDy=0;entryPerimeter=0;" edge="1" parent="WIyWlLk6GJQsqaUBKTNV-1" source="8Vt_5J74K0emihzSlpB0-3">
          <mxGeometry relative="1" as="geometry">
            <mxPoint x="230" y="544.9999999999998" as="targetPoint" />
          </mxGeometry>
        </mxCell>
        <mxCell id="8Vt_5J74K0emihzSlpB0-17" style="edgeStyle=orthogonalEdgeStyle;rounded=0;orthogonalLoop=1;jettySize=auto;html=1;exitX=0.5;exitY=0;exitDx=0;exitDy=0;entryX=0;entryY=0.5;entryDx=0;entryDy=0;entryPerimeter=0;" edge="1" parent="WIyWlLk6GJQsqaUBKTNV-1" source="8Vt_5J74K0emihzSlpB0-3" target="8Vt_5J74K0emihzSlpB0-14">
          <mxGeometry relative="1" as="geometry" />
        </mxCell>
        <mxCell id="8Vt_5J74K0emihzSlpB0-3" value="" style="shape=actor;whiteSpace=wrap;html=1;" vertex="1" parent="WIyWlLk6GJQsqaUBKTNV-1">
          <mxGeometry x="80" y="525" width="40" height="60" as="geometry" />
        </mxCell>
        <mxCell id="8Vt_5J74K0emihzSlpB0-6" value="" style="sketch=0;points=[[0,0,0],[0.25,0,0],[0.5,0,0],[0.75,0,0],[1,0,0],[0,1,0],[0.25,1,0],[0.5,1,0],[0.75,1,0],[1,1,0],[0,0.25,0],[0,0.5,0],[0,0.75,0],[1,0.25,0],[1,0.5,0],[1,0.75,0]];outlineConnect=0;fontColor=#232F3E;gradientColor=#4D72F3;gradientDirection=north;fillColor=#3334B9;strokeColor=#ffffff;dashed=0;verticalLabelPosition=bottom;verticalAlign=top;align=center;html=1;fontSize=12;fontStyle=0;aspect=fixed;shape=mxgraph.aws4.resourceIcon;resIcon=mxgraph.aws4.dynamodb;" vertex="1" parent="WIyWlLk6GJQsqaUBKTNV-1">
          <mxGeometry x="370" y="205" width="50" height="50" as="geometry" />
        </mxCell>
        <mxCell id="8Vt_5J74K0emihzSlpB0-7" value="" style="sketch=0;points=[[0,0,0],[0.25,0,0],[0.5,0,0],[0.75,0,0],[1,0,0],[0,1,0],[0.25,1,0],[0.5,1,0],[0.75,1,0],[1,1,0],[0,0.25,0],[0,0.5,0],[0,0.75,0],[1,0.25,0],[1,0.5,0],[1,0.75,0]];outlineConnect=0;fontColor=#232F3E;gradientColor=#60A337;gradientDirection=north;fillColor=#277116;strokeColor=#ffffff;dashed=0;verticalLabelPosition=bottom;verticalAlign=top;align=center;html=1;fontSize=12;fontStyle=0;aspect=fixed;shape=mxgraph.aws4.resourceIcon;resIcon=mxgraph.aws4.s3;" vertex="1" parent="WIyWlLk6GJQsqaUBKTNV-1">
          <mxGeometry x="450" y="205" width="50" height="50" as="geometry" />
        </mxCell>
        <mxCell id="8Vt_5J74K0emihzSlpB0-8" value="Devops&lt;br&gt;Engineer" style="text;html=1;strokeColor=none;fillColor=none;align=center;verticalAlign=middle;whiteSpace=wrap;rounded=0;" vertex="1" parent="WIyWlLk6GJQsqaUBKTNV-1">
          <mxGeometry x="70" y="590" width="60" height="30" as="geometry" />
        </mxCell>
        <mxCell id="8Vt_5J74K0emihzSlpB0-10" value="IAC-&lt;br&gt;Terraform" style="text;html=1;strokeColor=none;fillColor=none;align=center;verticalAlign=middle;whiteSpace=wrap;rounded=0;" vertex="1" parent="WIyWlLk6GJQsqaUBKTNV-1">
          <mxGeometry x="230" y="590" width="60" height="30" as="geometry" />
        </mxCell>
        <mxCell id="8Vt_5J74K0emihzSlpB0-11" value="" style="dashed=0;outlineConnect=0;html=1;align=center;labelPosition=center;verticalLabelPosition=bottom;verticalAlign=top;shape=mxgraph.webicons.github;gradientColor=#DFDEDE" vertex="1" parent="WIyWlLk6GJQsqaUBKTNV-1">
          <mxGeometry x="230" y="505" width="72.4" height="80" as="geometry" />
        </mxCell>
        <mxCell id="8Vt_5J74K0emihzSlpB0-18" style="edgeStyle=orthogonalEdgeStyle;rounded=0;orthogonalLoop=1;jettySize=auto;html=1;exitX=1;exitY=0.79;exitDx=0;exitDy=0;exitPerimeter=0;" edge="1" parent="WIyWlLk6GJQsqaUBKTNV-1" source="8Vt_5J74K0emihzSlpB0-14" target="8Vt_5J74K0emihzSlpB0-11">
          <mxGeometry relative="1" as="geometry">
            <Array as="points">
              <mxPoint x="266" y="420" />
              <mxPoint x="266" y="420" />
            </Array>
          </mxGeometry>
        </mxCell>
        <mxCell id="8Vt_5J74K0emihzSlpB0-19" style="edgeStyle=orthogonalEdgeStyle;rounded=0;orthogonalLoop=1;jettySize=auto;html=1;exitX=1;exitY=0.5;exitDx=0;exitDy=0;exitPerimeter=0;" edge="1" parent="WIyWlLk6GJQsqaUBKTNV-1" source="8Vt_5J74K0emihzSlpB0-14">
          <mxGeometry relative="1" as="geometry">
            <mxPoint x="330" y="356.8571428571429" as="targetPoint" />
          </mxGeometry>
        </mxCell>
        <mxCell id="8Vt_5J74K0emihzSlpB0-14" value="" style="outlineConnect=0;dashed=0;verticalLabelPosition=bottom;verticalAlign=top;align=center;html=1;shape=mxgraph.aws3.ec2;fillColor=#F58534;gradientColor=none;" vertex="1" parent="WIyWlLk6GJQsqaUBKTNV-1">
          <mxGeometry x="190" y="310" width="76.5" height="93" as="geometry" />
        </mxCell>
        <mxCell id="8Vt_5J74K0emihzSlpB0-15" value="Jenkins" style="text;html=1;strokeColor=none;fillColor=none;align=center;verticalAlign=middle;whiteSpace=wrap;rounded=0;" vertex="1" parent="WIyWlLk6GJQsqaUBKTNV-1">
          <mxGeometry x="198.25" y="403" width="60" height="30" as="geometry" />
        </mxCell>
        <mxCell id="8Vt_5J74K0emihzSlpB0-26" style="edgeStyle=orthogonalEdgeStyle;rounded=0;orthogonalLoop=1;jettySize=auto;html=1;exitX=0.75;exitY=0;exitDx=0;exitDy=0;entryX=0.346;entryY=0.983;entryDx=0;entryDy=0;entryPerimeter=0;" edge="1" parent="WIyWlLk6GJQsqaUBKTNV-1" source="8Vt_5J74K0emihzSlpB0-20" target="8Vt_5J74K0emihzSlpB0-21">
          <mxGeometry relative="1" as="geometry" />
        </mxCell>
        <mxCell id="8Vt_5J74K0emihzSlpB0-27" style="edgeStyle=orthogonalEdgeStyle;rounded=0;orthogonalLoop=1;jettySize=auto;html=1;exitX=1;exitY=0.5;exitDx=0;exitDy=0;" edge="1" parent="WIyWlLk6GJQsqaUBKTNV-1" source="8Vt_5J74K0emihzSlpB0-20">
          <mxGeometry relative="1" as="geometry">
            <mxPoint x="570" y="356.8571428571429" as="targetPoint" />
          </mxGeometry>
        </mxCell>
        <mxCell id="8Vt_5J74K0emihzSlpB0-20" value="Terraform" style="rounded=1;whiteSpace=wrap;html=1;" vertex="1" parent="WIyWlLk6GJQsqaUBKTNV-1">
          <mxGeometry x="330" y="326.5" width="120" height="60" as="geometry" />
        </mxCell>
        <mxCell id="8Vt_5J74K0emihzSlpB0-29" value="&lt;font style=&quot;font-size: 18px;&quot;&gt;AWS&lt;br&gt;INFRESTRUCTURE&lt;/font&gt;" style="rounded=1;whiteSpace=wrap;html=1;" vertex="1" parent="WIyWlLk6GJQsqaUBKTNV-1">
          <mxGeometry x="570" y="310" width="190" height="110" as="geometry" />
        </mxCell>
        <mxCell id="8Vt_5J74K0emihzSlpB0-30" value="&lt;font style=&quot;font-size: 14px;&quot;&gt;BACKEND&lt;br&gt;S3 BUCKET LOCKED WITH A DYNAMODBTABLE&lt;/font&gt;" style="text;html=1;strokeColor=none;fillColor=none;align=center;verticalAlign=middle;whiteSpace=wrap;rounded=0;" vertex="1" parent="WIyWlLk6GJQsqaUBKTNV-1">
          <mxGeometry x="260" y="149" width="340" height="30" as="geometry" />
        </mxCell>
        <mxCell id="8Vt_5J74K0emihzSlpB0-31" value="provision" style="text;html=1;strokeColor=none;fillColor=none;align=center;verticalAlign=middle;whiteSpace=wrap;rounded=0;" vertex="1" parent="WIyWlLk6GJQsqaUBKTNV-1">
          <mxGeometry x="480" y="350" width="60" height="30" as="geometry" />
        </mxCell>
        <mxCell id="8Vt_5J74K0emihzSlpB0-33" value="Pull code" style="text;html=1;strokeColor=none;fillColor=none;align=center;verticalAlign=middle;whiteSpace=wrap;rounded=0;" vertex="1" parent="WIyWlLk6GJQsqaUBKTNV-1">
          <mxGeometry x="266.5" y="433" width="60" height="30" as="geometry" />
        </mxCell>
      </root>
    </mxGraphModel>
  </diagram>
</mxfile>
